<?xml version="1.0" encoding="UTF-8"?><svg id="a" xmlns="http://www.w3.org/2000/svg" xmlns:xlink="http://www.w3.org/1999/xlink" viewBox="0 0 366.79006 134.37049"><defs><style>.e{fill:url(#d);}.f{fill:url(#c);}.g{fill:url(#b);}.h{fill:#fff;}</style><linearGradient id="b" x1="270.91954" y1="88.02181" x2="316.34114" y2="-18.13375" gradientTransform="matrix(1, 0, 0, 1, 0, 0)" gradientUnits="userSpaceOnUse"><stop offset="0" stop-color="#7000ff"/><stop offset="1" stop-color="#db00ff"/></linearGradient><linearGradient id="c" x1="293.19787" y1="97.55421" x2="338.6195" y2="-8.60145" xlink:href="#b"/><linearGradient id="d" x1="313.40052" y1="132.93255" x2="365.89058" y2="8.34075" gradientTransform="matrix(1, 0, 0, 1, 0, 0)" gradientUnits="userSpaceOnUse"><stop offset="0" stop-color="#7000ff"/><stop offset="1" stop-color="#db00ff"/></linearGradient></defs><path d="M272.42939,110.74241c8.56614-.47068,15.20254-3.48294,19.90917-9.03677,4.23599-5.27146,6.77757-11.53132,7.62478-18.77957,.18826-3.38881-.14121-6.77759-.98837-10.16638-.75305-2.54162-1.27083-4.09478-1.55321-4.65962-1.31784-3.57705-3.48294-7.20115-6.4952-10.87235-.65894-.94136-2.49452-2.91815-5.50678-5.93041v-.14121c-1.97679-1.88263-3.48294-3.67116-4.51836-5.36557-2.16509-3.01226-3.24762-6.02452-3.24762-9.03677,0-2.54162,.61185-4.70667,1.83558-6.4952,.65894-1.03547,1.50615-1.55321,2.54162-1.55321s1.83558,.28242,2.40037,.84721v.14121l.14121,.14121c.94136,1.31784,1.412,3.52999,1.412,6.63636l-.42358,6.21278,19.62675-.14117,.56479-6.6364c0-2.63573-.18826-5.13025-.56479-7.48357-.37657-2.44747-.89426-4.75377-1.55321-6.91882-1.412-3.48294-3.52999-6.35399-6.35399-8.61315-3.38883-2.54162-7.71893-3.81241-12.99039-3.81241-5.64799,0-10.49583,1.50611-14.54355,4.51841-6.77757,5.08316-10.73114,12.3785-11.86077,21.88596-.18826,1.03547-.28242,2.58863-.28242,4.65957,0,3.48294,.56479,6.77757,1.69441,9.88398l-.14121,.14121,.14121,.14121c1.50615,3.95357,4.18889,8.18957,8.04836,12.70797l.14121,.14117h.14121l9.60156,11.57839c2.16509,2.82399,3.10641,5.7892,2.82399,8.89556-.28237,1.97681-.706,3.38881-1.27075,4.23599-1.41204,1.88268-2.87109,2.82402-4.37724,2.82402h-.14117c-.94136,0-1.78852-.51774-2.54162-1.55321-1.412-1.78852-2.02384-4.98905-1.83558-9.60158v-4.09478h-18.63838l-.42358,4.80078c-.09415,.94134-.14121,2.35334-.14121,4.23599,0,4.23599,.47064,7.90719,1.412,11.01358,1.412,4.42428,3.52999,7.90719,6.35399,10.44879,3.48294,3.20052,8.14251,4.80078,13.97876,4.80078Zm-25.45012-1.412l2.68279-21.46237h-22.16837l2.118-17.22634h16.09676l2.68283-21.46237h-16.0968l2.118-17.22634h22.02721l2.68274-21.46237h-41.93629l-12.14318,98.8398h41.93633Zm-69.12279-21.03875l6.91878-56.90351h3.95362c.75305,0,1.45905,.37653,2.118,1.12962,.6589,.75305,.89422,1.78852,.706,3.10637l-5.93041,48.29032c-.09411,1.22373-.61189,2.30626-1.55321,3.2476-.75305,.75308-1.55321,1.1296-2.40037,1.1296h-3.81241Zm.84721,21.03875c6.58931,0,12.47266-2.5416,17.64996-7.62478,5.17731-5.17733,8.18961-11.20187,9.03677-18.07359l5.7892-47.58428c.18826-1.69441,.28237-2.87109,.28237-3.52999,0-5.27146-1.60022-10.07224-4.80074-14.40239-3.95362-5.0832-9.22508-7.62478-15.81439-7.62478h-23.43916l-12.14318,98.8398h23.43916ZM135.88706,30.82336c1.12962,0,1.97683,.37653,2.54162,1.12962,.6589,.84716,.94132,1.78852,.84721,2.82399l-6.21282,49.98469c-.09411,1.12958-.56479,2.02384-1.412,2.68279-.75305,.75305-1.69437,1.1296-2.82399,1.1296s-2.02384-.37655-2.68279-1.1296c-.6589-.84721-.94132-1.74147-.84721-2.68279l6.21282-49.98469c.09411-1.03547,.56479-1.97683,1.412-2.82399,1.03547-.7531,2.02384-1.12962,2.96516-1.12962Zm-9.46035,79.91905c7.15414,0,13.55518-2.5416,19.20317-7.62478,5.7421-4.98907,9.03677-11.10771,9.88398-18.35596l6.07157-49.84352c.09411-.75305,.14121-1.88263,.14121-3.38878,0-5.93036-1.78852-10.87235-5.36561-14.82597-4.51836-5.0832-10.35462-7.62478-17.50876-7.62478-6.96583,0-13.31982,2.49452-19.06196,7.48357-5.55384,4.98909-8.84851,11.10771-9.88398,18.35596l-6.07157,49.84352c-.09415,.75305-.14121,1.92973-.14121,3.52999,0,5.7421,1.78852,10.68409,5.36557,14.82597,4.4243,5.08318,10.21345,7.62478,17.36759,7.62478Zm-52.566,0c6.77757,0,12.84914-2.5416,18.21475-7.62478,5.17731-4.89493,8.28372-10.96651,9.31919-18.21478l2.68279-22.45077h-21.32117l-2.68279,22.30958c-.09415,1.03545-.56479,1.97679-1.412,2.82399-.7531,.75305-1.60026,1.12958-2.54162,1.12958-.84716,0-1.55316-.32947-2.118-.98839-.56479-.75308-.80011-1.74145-.706-2.96518l6.07161-50.1259c.28237-1.31789,.80011-2.2592,1.55321-2.82399,.6589-.7531,1.412-1.12962,2.25916-1.12962,1.03547,0,1.78857,.37653,2.2592,1.12962,.65894,.6589,.89426,1.60026,.706,2.82399l-2.54158,21.03875h21.32117l2.54158-20.75638c.18826-1.69437,.28242-2.9181,.28242-3.67116,0-5.36561-1.64736-10.21345-4.94199-14.5436-4.04773-5.0832-9.55451-7.62478-16.52038-7.62478-6.77757,0-12.84918,2.54158-18.21475,7.62478-5.36561,5.0832-8.47198,11.15477-9.31919,18.21475l-6.07157,49.98471c-.18831,1.69439-.28242,2.9652-.28242,3.81239,0,5.55388,1.64732,10.35466,4.94199,14.40239,4.23599,5.08318,9.74277,7.62478,16.52038,7.62478Zm-51.83354,0c3.95357,0,7.67183-.65894,11.15477-1.97679,3.38878-1.412,6.35399-3.38881,8.89556-5.93041,4.80082-5.08318,7.67187-11.6725,8.61319-19.76796l.84721-6.91878c.18826-2.07094,.28242-3.57705,.28242-4.51841,0-3.85946-.61189-7.05999-1.83562-9.60156-.75305-1.78852-1.74147-3.29467-2.9652-4.51841,1.50615-1.31784,2.77694-2.7769,3.81241-4.37716,2.72988-3.85946,4.47131-8.56614,5.22441-14.11997l.28237-2.40041c.18826-1.22373,.28242-3.01226,.28242-5.36557,0-5.93041-1.31789-10.68413-3.95362-14.26118-1.78852-2.63573-4.28305-4.61256-7.48357-5.93041s-6.77757-1.97679-10.73119-1.97679-7.62478,.65894-11.01356,1.97679c-3.38878,1.22373-6.35399,3.20052-8.89559,5.93041-4.61252,4.70663-7.48359,11.24888-8.61319,19.62675l-.4236,4.94199H24.70995l.56479-5.50678c.47068-3.01226,1.27079-5.17731,2.40041-6.4952,.84721-1.03547,2.2592-1.55321,4.23599-1.55321,1.88268,0,3.15347,.47068,3.81237,1.412,.65894,.84721,.98842,2.30626,.98842,4.3772,0,.47064-.09411,1.55321-.28242,3.24758l-.56479,4.09483c-.28237,2.82399-1.03547,4.75368-2.2592,5.78915-1.22369,1.03547-2.72984,1.60026-4.51836,1.69441h-10.73119l-2.40039,18.77954h10.30758c1.412,.09415,2.40037,.28242,2.9652,.56483,.56479,.28237,1.08253,.6589,1.55316,1.12958,.65894,.75305,.98842,2.16505,.98842,4.23599,0,1.03547-.04706,1.88263-.14121,2.5416l-.84721,6.91878c-.47064,3.38881-1.27079,5.88333-2.40037,7.48359-.94132,.94132-2.35331,1.412-4.23599,1.412-1.97679,0-3.29467-.47068-3.95362-1.412-.56479-1.03547-.84716-2.40039-.84716-4.09478,0-1.03547,.04706-1.88268,.14117-2.54162l1.412-11.71956H1.69439l-1.412,11.15477c-.18826,1.22373-.2824,2.9652-.2824,5.22441,0,5.83625,1.31787,10.63703,3.9536,14.40237,3.9536,5.36559,9.97811,8.04838,18.07357,8.04838Z" style="fill:#fff;"/><g><path d="M252.44419,122.48735c-1.98245,3.08182-3.92271,6.19096-5.85886,9.30221-.29424,.47281-.52123,1.0093-.66248,1.54702-.08223,.31312,.06789,.68725,.11344,1.03391,.33054-.09976,.74746-.10506,.977-.31512,1.16439-1.06561,2.37791-2.10109,3.39753-3.29767,5.29365-6.21249,10.60996-12.40697,15.8751-18.64343-2.00252-.44928-3.84443-1.13967-5.5195-2.05851-2.82913,4.10583-5.62321,8.23584-8.32224,12.43158Z" style="fill:url(#b);"/><path d="M345.97169,3.38872c.54514-1.02168,.9024-2.14366,1.34675-3.21912l-.24896-.1696c-.32962,.18664-.69813,.32734-.98192,.56797-1.09672,.92966-2.27999,1.79068-3.22583,2.85889-3.46056,3.90843-6.92382,7.82016-10.23041,11.8581-7.11635,8.69032-14.21128,17.40027-21.17908,26.20965-5.14845,6.50922-10.2084,13.08551-15.22204,19.69681,1.2662,2.05457,2.28984,4.10231,3.04287,6.12631,.15845,.33578,.39194,.91966,.80232,2.18705,10.19698-13.28627,20.14187-26.75825,29.59766-40.59199,5.69997-8.33901,11.53232-16.59184,16.29863-25.52408Z" style="fill:url(#c);"/></g><path d="M366.79006,83.70098c-.17625,1.60307-.92045,2.82154-2.23541,3.70232-2.43393,1.63028-5.09079,2.81623-7.79234,3.91299-14.83893,6.02425-29.53612,12.39803-44.50273,18.10626-6.9835,2.66348-13.96544,5.3476-21.17393,7.37361-.91745,.25786-1.84317,.47535-2.79275,.58129-.36842,.0411-.77749,.11106-.95504-.29929-.16413-.37931,.1724-.62657,.41917-.83635,1.80261-1.53248,3.86522-2.66421,5.90646-3.83578,8.40792-4.82575,17.13731-9.03552,25.74385-13.48204,9.60679-4.96329,19.35817-9.6161,29.23862-14.00522,.9204-.40886,1.80922-.88938,2.70726-1.34725,.18561-.09463,.50552-.12425,.45282-.40407-.02631-.13976-.27088-.25655-.43604-.34951-3.14747-1.77149-6.32124-3.49767-9.44281-5.31346-7.06923-4.11214-14.05557-8.35781-20.63654-13.23093-1.30891-.96923-2.51793-2.05368-3.50537-3.35819-.29954-.39572-.67898-.86193-.35628-1.36811,.31484-.49386,.88439-.38627,1.38733-.29686,3.72116,.66148,7.22028,2.00985,10.68466,3.46142,7.80416,3.26992,15.43382,6.91496,22.97677,10.74081,4.01999,2.03897,8.0067,4.14415,11.94096,6.34627,1.54383,.86412,2.159,2.26925,2.37135,3.90209Z" style="fill:url(#d);"/></svg>